<svg id="Capa_1" data-name="Capa 1" xmlns="http://www.w3.org/2000/svg" viewBox="0 0 28.57 25"><defs><style>.cls-1{fill:#ed1e79;}</style></defs><path class="cls-1" d="M27.56,10.81H23.1V.8a.8.8,0,0,0-.8-.8h-16a.8.8,0,0,0-.8.8v10H1a1,1,0,0,0-1,1V23.87A1.14,1.14,0,0,0,1.13,25H12.44V20.46a.78.78,0,0,1,.78-.78h2.12a.78.78,0,0,1,.79.78V25h11.3a1.14,1.14,0,0,0,1.14-1.13V11.81A1,1,0,0,0,27.56,10.81ZM9,11.15V9a.79.79,0,0,1,.78-.79h2.12a.8.8,0,0,1,.79.79v2.13a.79.79,0,0,1-.79.78H9.81A.78.78,0,0,1,9,11.15ZM11.93,3a.79.79,0,0,1,.79.78V5.89a.8.8,0,0,1-.79.79H9.81A.79.79,0,0,1,9,5.89V3.76A.78.78,0,0,1,9.81,3ZM9.81,17A.78.78,0,0,1,9,16.2V14.06a.73.73,0,0,1,.06-.3.78.78,0,0,1,.71-.48h2.14a.78.78,0,0,1,.78.78V16.2a.79.79,0,0,1-.79.78ZM3.65,17a.78.78,0,0,1-.78-.78V14.06a.73.73,0,0,1,.06-.3.78.78,0,0,1,.71-.48H5.78a.78.78,0,0,1,.78.78V16.2a.79.79,0,0,1-.79.78ZM18.76,3a.78.78,0,0,1,.78.78V5.89a.79.79,0,0,1-.78.79H16.63a.79.79,0,0,1-.78-.79V3.76A.78.78,0,0,1,16.63,3Zm.78,8.17a.78.78,0,0,1-.78.78H16.63a.78.78,0,0,1-.78-.78V9a.79.79,0,0,1,.78-.79h2.13a.79.79,0,0,1,.78.79ZM16.63,17a.78.78,0,0,1-.78-.78V14.06a.78.78,0,0,1,.77-.78h2.14a.79.79,0,0,1,.72.48.73.73,0,0,1,.06.3V16.2a.78.78,0,0,1-.78.78Zm6.44,0a.78.78,0,0,1-.79-.78V14.06a.78.78,0,0,1,.78-.78h2.13a.79.79,0,0,1,.72.48.73.73,0,0,1,.06.3V16.2a.78.78,0,0,1-.78.78ZM3.65,22.24a.79.79,0,0,1-.78-.79V19.31a.77.77,0,0,1,.77-.77H5.78a.78.78,0,0,1,.78.77v2.14a.8.8,0,0,1-.79.79Zm19.42,0a.79.79,0,0,1-.79-.79V19.31a.78.78,0,0,1,.78-.77h2.13a.78.78,0,0,1,.72.47.77.77,0,0,1,.06.3v2.14a.79.79,0,0,1-.78.79Z"/></svg>