<svg id="Capa_1" data-name="Capa 1" xmlns="http://www.w3.org/2000/svg" viewBox="0 0 25 25"><defs><style>.cls-1{fill:#ed1e79;}</style></defs><path class="cls-1" d="M23.41,0H1.59A1.59,1.59,0,0,0,0,1.59V23.41A1.59,1.59,0,0,0,1.59,25H23.41A1.59,1.59,0,0,0,25,23.41V1.59A1.59,1.59,0,0,0,23.41,0ZM10.46,17.88H5.22c-.57,0-.85-.27-.85-.82s.28-.8.85-.8H6.93V9.32l-1.3.78a.77.77,0,0,1-.67.11.81.81,0,0,1-.45-.38.91.91,0,0,1-.09-.61.78.78,0,0,1,.43-.54L7,7.41a5.14,5.14,0,0,1,.61-.32A1.65,1.65,0,0,1,8.14,7a.82.82,0,0,1,.54.18.71.71,0,0,1,.21.57v8.55h1.57c.56,0,.84.27.84.8A.73.73,0,0,1,10.46,17.88Zm9.69-1.55a3.29,3.29,0,0,1-1.35,1.26,4.57,4.57,0,0,1-2.09.45,6.37,6.37,0,0,1-1.66-.22,5.22,5.22,0,0,1-1.55-.66.84.84,0,0,1-.43-.55.88.88,0,0,1,.08-.62.77.77,0,0,1,.45-.38.83.83,0,0,1,.68.11,5.16,5.16,0,0,0,1.15.49,4.22,4.22,0,0,0,1.24.17,2.15,2.15,0,0,0,1.51-.49,1.72,1.72,0,0,0,.55-1.34,1.91,1.91,0,0,0-.52-1.39,1.94,1.94,0,0,0-1.43-.53,2.79,2.79,0,0,0-1,.16,2.67,2.67,0,0,0-.9.56,2.12,2.12,0,0,1-.35.24,1.07,1.07,0,0,1-.46.11c-.52,0-.79-.25-.79-.75v-5a.76.76,0,0,1,.86-.86h5c.57,0,.86.28.86.82s-.29.81-.86.81h-4v2.92a3.25,3.25,0,0,1,2-.61,3.54,3.54,0,0,1,1.79.44,3.12,3.12,0,0,1,1.18,1.21,3.68,3.68,0,0,1,.42,1.8A3.58,3.58,0,0,1,20.15,16.33Z"/></svg>