<svg id="Capa_1" data-name="Capa 1" xmlns="http://www.w3.org/2000/svg" viewBox="0 0 30 30"><defs><style>.cls-1{fill:#fff;}</style></defs><path class="cls-1" d="M16.87,2.65a1.18,1.18,0,0,0,.33.47,2,2,0,0,0,.82.32,8.18,8.18,0,0,1,5.33,4.71c1,2.13,1,4.28,1.16,6.56.19,2.58,1.64,4.43,3.2,6.34a2,2,0,0,1,.5,1.18,2.31,2.31,0,0,1-.45,1.21,1.87,1.87,0,0,1-.64.67,2.14,2.14,0,0,1-.95.17l-4.53.11q-3.55.08-7.11.05c-3.46,0-9.58.16-10.76.07a1.9,1.9,0,0,1-.9-.25,1.73,1.73,0,0,1-.93-1.51c0-1.39,1.41-2.42,2.13-3.46A10.27,10.27,0,0,0,5.53,14c.15-2.28.11-4.7,1.45-6.66A11.84,11.84,0,0,1,10.5,4c1.14-.72,2.37-.11,2.53-2.22A1.87,1.87,0,0,1,16.17.51C16.73,1.05,16.6,2,16.87,2.65Z"/><path class="cls-1" d="M14.2,29.85A4.75,4.75,0,0,1,12.74,29a4.65,4.65,0,0,1-1.49-2.86.2.2,0,0,1,0-.17c.09-.09.26,0,.35.05a2.47,2.47,0,0,0,.86.05c1.06,0,2.13,0,3.19,0a13,13,0,0,0,3-.12c.36-.09.39.23.32.51a4.61,4.61,0,0,1-3.33,3.45A2.59,2.59,0,0,1,14.2,29.85Z"/><line class="cls-1" x1="26.17" y1="24.28" x2="3.7" y2="24.51"/></svg>