<svg id="Capa_1" data-name="Capa 1" xmlns="http://www.w3.org/2000/svg" viewBox="0 0 30 30"><defs><style>.cls-1{fill:#fff;}</style></defs><path class="cls-1" d="M27.73,0H2.27A2.27,2.27,0,0,0,0,2.27V27.73A2.27,2.27,0,0,0,2.27,30H27.73A2.27,2.27,0,0,0,30,27.73V2.27A2.27,2.27,0,0,0,27.73,0ZM24.57,16.76a1.14,1.14,0,0,1-1.14,1.14H19A1.14,1.14,0,0,0,17.9,19v4.39a1.14,1.14,0,0,1-1.14,1.14H13.24a1.14,1.14,0,0,1-1.14-1.14V19A1.14,1.14,0,0,0,11,17.9H6.57a1.14,1.14,0,0,1-1.14-1.14V13.24A1.14,1.14,0,0,1,6.57,12.1H11A1.14,1.14,0,0,0,12.1,11V6.57a1.14,1.14,0,0,1,1.14-1.14h3.52A1.14,1.14,0,0,1,17.9,6.57V11A1.14,1.14,0,0,0,19,12.1h4.39a1.14,1.14,0,0,1,1.14,1.14Z"/></svg>