<svg id="Capa_1" data-name="Capa 1" xmlns="http://www.w3.org/2000/svg" viewBox="0 0 700.81 117.66"><defs><style>.cls-1{fill:#3fa9f5;}.cls-2{fill:#ed1e79;}</style></defs><path class="cls-1" d="M205.65,77.92a13.36,13.36,0,0,1-1,5.34,5.85,5.85,0,0,1-3.39,3.12,20.53,20.53,0,0,1-4,.9,29.23,29.23,0,0,1-4.12.37q-11.85,0-17.56-5.49T169.9,65.54V48.31h-3.6c-4.72,0-7.08-2.34-7.08-7s2.36-6.88,7.08-6.88h3.6v-14c0-3.11.8-5.47,2.43-7.09s3.95-2.44,7-2.44q9.42,0,9.42,9.53v14h8.67q7.18,0,7.19,6.88c0,4.64-2.4,7-7.19,7h-8.67V64.92q0,7.59,7.72,7.6a12.77,12.77,0,0,0,2.85-.31,10.89,10.89,0,0,1,2.54-.32,3.33,3.33,0,0,1,2.75,1C205.29,73.64,205.65,75.31,205.65,77.92Z"/><path class="cls-1" d="M238.75,87.65a37.59,37.59,0,0,1-16.44-3.33,24.37,24.37,0,0,1-10.63-9.47A27.49,27.49,0,0,1,208,60.36a27.61,27.61,0,0,1,3.55-14.06,25.16,25.16,0,0,1,9.73-9.58,28.58,28.58,0,0,1,14.12-3.43A27.07,27.07,0,0,1,249,36.56a22.17,22.17,0,0,1,8.89,9.37A30.73,30.73,0,0,1,261,60.15c0,2.75-1.63,4.13-4.87,4.13H226q.94,5.07,4.23,7.3t9.09,2.22a32,32,0,0,0,5.29-.53,27,27,0,0,0,5.82-1.69q3.39-1.27,5.71-.06a6.16,6.16,0,0,1,3.12,3.7A7.43,7.43,0,0,1,259,80.3a7.28,7.28,0,0,1-4,4,31.28,31.28,0,0,1-7.88,2.59A44.86,44.86,0,0,1,238.75,87.65Zm-2.53-42.2A9.7,9.7,0,0,0,229.29,48a12.33,12.33,0,0,0-3.44,7.4h19.67c-.21-3.31-1.11-5.8-2.69-7.45A8.71,8.71,0,0,0,236.22,45.45Z"/><path class="cls-1" d="M287.2,87.65a24.19,24.19,0,0,1-10.63-2.22,17.65,17.65,0,0,1-7.19-6.08,15.46,15.46,0,0,1-2.6-8.83q0-5.61,3-8.94t9.51-4.76a85.48,85.48,0,0,1,17.46-1.43h4V53.91c0-2.54-.66-4.34-2-5.39s-3.54-1.59-6.72-1.59a31.38,31.38,0,0,0-5.76.58,42.84,42.84,0,0,0-7,2.06q-3.48,1.27-5.81-.1a6.36,6.36,0,0,1-3-4,7.39,7.39,0,0,1,.53-5.18,7.75,7.75,0,0,1,4.71-3.86A53.73,53.73,0,0,1,285,34a51,51,0,0,1,7.88-.68q13,0,19.3,5.6t6.3,17.66V77.92q0,9.52-8.68,9.52-8.25,0-8.78-8.46A12.56,12.56,0,0,1,296,85.33,15.85,15.85,0,0,1,287.2,87.65Zm4.23-12.27A9.25,9.25,0,0,0,298,72.84a8.71,8.71,0,0,0,2.7-6.66v-1.9h-4q-6.24,0-9.15,1.32a4.37,4.37,0,0,0-2.91,4.18,5.21,5.21,0,0,0,1.74,4A7.27,7.27,0,0,0,291.43,75.38Z"/><path class="cls-1" d="M338.71,87.44c-3,0-5.34-.81-6.93-2.43s-2.38-4-2.38-7.09v-35q0-9.4,9.2-9.41,8.36,0,9.1,8a16.67,16.67,0,0,1,6.4-6,19.45,19.45,0,0,1,9.46-2.22,17.38,17.38,0,0,1,9.15,2.32,14.51,14.51,0,0,1,5.87,7.19,18.42,18.42,0,0,1,7.2-7,20.55,20.55,0,0,1,10-2.48q9.1,0,13.49,5.44t4.39,17V77.92q0,4.67-2.49,7.09c-1.65,1.62-4,2.43-7,2.43A9.29,9.29,0,0,1,397.31,85q-2.44-2.43-2.44-7.09V56.24q0-4.55-1.37-6.56a5.12,5.12,0,0,0-4.55-2,7,7,0,0,0-6,2.75q-2.06,2.74-2.06,7.83V77.92q0,4.67-2.43,7.09t-7,2.43c-3,0-5.36-.81-7-2.43s-2.44-4-2.44-7.09V56.24q0-4.55-1.37-6.56a5.11,5.11,0,0,0-4.55-2,6.9,6.9,0,0,0-5.87,2.75c-1.38,1.83-2.06,4.44-2.06,7.83V77.92Q348.23,87.45,338.71,87.44Z"/><path class="cls-1" d="M444.37,87.65q-10.26,0-15-5.45t-4.76-16.44V20.49q0-9.52,9.31-9.52c3,0,5.38.81,7,2.43s2.49,4,2.49,7.09V65.12c0,2.61.51,4.52,1.53,5.71a5,5,0,0,0,4,1.8,7.44,7.44,0,0,0,1.53-.16c.53-.1,1.12-.19,1.75-.26A3,3,0,0,1,455,73.58c.56.92.85,2.79.85,5.61a8.8,8.8,0,0,1-1.48,5.55,7.09,7.09,0,0,1-4.55,2.38,17.61,17.61,0,0,1-2.44.37A28.47,28.47,0,0,1,444.37,87.65Z"/><path class="cls-1" d="M487.21,87.65a32.9,32.9,0,0,1-15.12-3.28A23.85,23.85,0,0,1,462,75a28.12,28.12,0,0,1-3.6-14.49A28,28,0,0,1,462,45.93a24,24,0,0,1,10-9.37,36.61,36.61,0,0,1,30.25,0,23.74,23.74,0,0,1,10,9.37,28.4,28.4,0,0,1,3.55,14.54A28.5,28.5,0,0,1,512.33,75a23.59,23.59,0,0,1-10,9.41A33,33,0,0,1,487.21,87.65Zm0-13.85a8.82,8.82,0,0,0,7-3.18q2.74-3.16,2.75-10.15t-2.75-10.21a8.89,8.89,0,0,0-7-3.12,9,9,0,0,0-7.09,3.12q-2.75,3.12-2.75,10.21t2.75,10.15A9,9,0,0,0,487.21,73.8Z"/><path class="cls-1" d="M550.36,106.69q-12,0-19.68-3.07-3.81-1.37-4.92-4a7.52,7.52,0,0,1-.26-5.34,7.38,7.38,0,0,1,3-4.12,5.51,5.51,0,0,1,5.13-.37,38.09,38.09,0,0,0,8.41,2.48,43,43,0,0,0,6.51.58q6.45,0,9.68-2.69t3.22-8.41V76.86a15.44,15.44,0,0,1-6.66,6,21,21,0,0,1-9.52,2.22,22.56,22.56,0,0,1-12.17-3.22,22,22,0,0,1-8.09-9,30.1,30.1,0,0,1-2.91-13.64A30.17,30.17,0,0,1,525,45.55a22,22,0,0,1,8.09-9,22.56,22.56,0,0,1,12.17-3.22,21.4,21.4,0,0,1,9.57,2.16,14.14,14.14,0,0,1,6.4,5.87q1-7.82,9.31-7.82,9.2,0,9.2,9.41v36.6q0,13.63-7.62,20.41T550.36,106.69Zm.74-35.43a9.28,9.28,0,0,0,7.4-3.18q2.75-3.17,2.75-8.88t-2.75-8.89a9.3,9.3,0,0,0-7.4-3.17,9.18,9.18,0,0,0-7.3,3.17c-1.84,2.12-2.75,5.08-2.75,8.89S542,66,543.8,68.08A9.16,9.16,0,0,0,551.1,71.26Z"/><path class="cls-1" d="M611.49,87.65a62.3,62.3,0,0,1-9.52-.74,35.33,35.33,0,0,1-8.67-2.43,7,7,0,0,1-4.29-3.7,6.83,6.83,0,0,1-.21-4.87,6.54,6.54,0,0,1,2.91-3.7,5.72,5.72,0,0,1,5.08-.21,51.22,51.22,0,0,0,7.93,2.27,36.54,36.54,0,0,0,6.88.69q3.9,0,5.6-1.11a3.35,3.35,0,0,0,1.69-2.91,2.73,2.73,0,0,0-1.11-2.38,8.45,8.45,0,0,0-3.12-1.22l-11.74-1.9q-6.55-1.05-10.15-4.76a13.22,13.22,0,0,1-3.6-9.63,15,15,0,0,1,3.07-9.46,19.57,19.57,0,0,1,8.57-6.14,34.2,34.2,0,0,1,12.58-2.16,46.29,46.29,0,0,1,8.68.74,32.73,32.73,0,0,1,7.61,2.43,5.85,5.85,0,0,1,3.65,3.59,7.06,7.06,0,0,1-.1,4.82,6.74,6.74,0,0,1-3.07,3.59,6,6,0,0,1-5.24.06,45,45,0,0,0-6.18-2,21.73,21.73,0,0,0-5-.64q-4.34,0-6.13,1.22a3.49,3.49,0,0,0-1.8,2.91c0,1.9,1.3,3.07,3.91,3.49l11.74,2q6.77,1.05,10.42,4.6t3.65,9.57q0,8.56-6.56,13.28T611.49,87.65Z"/><rect class="cls-2" x="103.28" y="62.62" width="40.62" height="16.25" rx="7.74" transform="translate(-13.83 108.11) rotate(-45)"/><rect class="cls-2" x="62.31" y="62.62" width="40.62" height="16.25" rx="7.74" transform="translate(-25.83 79.14) rotate(-45)"/><rect class="cls-2" x="103.28" y="20.15" width="40.62" height="16.25" rx="7.74" transform="translate(16.21 95.67) rotate(-45)"/><rect class="cls-2" x="61.73" y="20.15" width="41.78" height="16.25" rx="7.74" transform="translate(4.2 66.7) rotate(-45)"/></svg>